<?xml version="1.0" encoding="UTF-8"?>
<svg width="29px" height="24px" viewBox="0 0 29 24" version="1.1" xmlns="http://www.w3.org/2000/svg" xmlns:xlink="http://www.w3.org/1999/xlink">
    <!-- Generator: Sketch 48.2 (47327) - http://www.bohemiancoding.com/sketch -->
    <title>Icon Navy - Article - 24x24</title>
    <desc>Created with Sketch.</desc>
    <defs></defs>
    <g id="Article" stroke="none" stroke-width="1" fill="none" fill-rule="evenodd" transform="translate(-133.000000, -56.000000)">
        <g id="Icon-Gold---Article---24x24" transform="translate(133.000000, 56.000000)" fill="#C29B40">
            <path d="M14.7107902,2.14940863 L14.7107902,22.7590631 C15.0568301,22.6578858 15.336279,22.4587382 15.5655813,22.1814773 C15.7763676,21.9264375 15.898647,21.6702331 15.9417359,21.5234979 L16.0651798,21.1065835 L25.2862087,21.1065835 C26.2493043,21.1065835 27.0342214,20.3193372 27.0342214,19.3492543 L27.0342214,2.92189461 C27.0342214,1.95064706 26.252798,1.16456541 25.2885378,1.16456541 L15.614493,1.16456541 C15.4915544,1.16456541 15.0423524,1.66954058 14.7107902,2.14940863 Z M13.5462248,22.7602498 L13.5462248,2.23643667 C13.2133565,1.73273532 12.715794,1.16456541 12.5842938,1.16456541 L2.91024896,1.16456541 C1.94831793,1.16456541 1.16456541,1.95181162 1.16456541,2.92189461 L1.16456541,19.3492543 C1.16456541,20.3205018 1.94831793,21.1065835 2.91257809,21.1065835 L12.1475818,21.1065835 L12.2628738,21.5409664 C12.2978107,21.6795496 12.4119381,21.9287666 12.6215599,22.1768191 C12.8574768,22.4564549 13.158249,22.6583812 13.5462248,22.7602498 Z M15.614493,0 L25.2885378,0 C26.8956381,0 28.1987868,1.30897152 28.1987868,2.92189461 L28.1987868,19.3492543 C28.1987868,20.9610128 26.8944735,22.2711489 25.2862087,22.2711489 L16.8908567,22.2711489 C16.7895395,22.4749478 16.6486271,22.6997089 16.4634612,22.9233055 C15.8881659,23.6185511 15.0752992,24.0308072 14.0341777,23.9981994 C13.0373097,23.964427 12.2710257,23.564981 11.7318319,22.9291283 C11.5408432,22.7032026 11.4010953,22.477277 11.2997782,22.2711489 L2.91257809,22.2711489 C1.30314869,22.2711489 0,20.9621774 0,19.3492543 L0,2.92189461 C0,1.30897152 1.30314869,0 2.91024896,0 L12.5842938,0 C13.1479435,0 13.6324027,0.390129412 14.0993934,0.994538859 C14.5675487,0.390129412 15.0508433,0 15.614493,0 Z M4.38808246,5.45598894 C4.06666241,5.45598894 3.80579976,5.71568703 3.80579976,6.03710708 C3.80579976,6.35852713 4.06666241,6.62055435 4.38808246,6.62055435 L9.46325851,6.62055435 C9.783514,6.62055435 10.0443766,6.35852713 10.0443766,6.03710708 C10.0443766,5.71568703 9.783514,5.45598894 9.46325851,5.45598894 L4.38808246,5.45598894 Z M4.38808246,10.4030628 C4.06666241,10.4030628 3.80579976,10.6627609 3.80579976,10.9841809 C3.80579976,11.3067656 4.06666241,11.5676282 4.38808246,11.5676282 L9.46325851,11.5676282 C9.783514,11.5676282 10.0443766,11.3067656 10.0443766,10.9841809 C10.0443766,10.6627609 9.783514,10.4030628 9.46325851,10.4030628 L4.38808246,10.4030628 Z M4.38808246,15.7309495 C4.06666241,15.7309495 3.80579976,15.9918122 3.80579976,16.3132322 C3.80579976,16.6346523 4.06666241,16.8943504 4.38808246,16.8943504 L9.46325851,16.8943504 C9.783514,16.8943504 10.0443766,16.6346523 10.0443766,16.3132322 C10.0443766,15.9918122 9.783514,15.7309495 9.46325851,15.7309495 L4.38808246,15.7309495 Z"></path>
        </g>
    </g>
</svg>
