<svg xmlns="http://www.w3.org/2000/svg" width="16" height="16" viewBox="0 0 16 16" fill="none"><path d="m1.2415275 0.2130075c-0.28402-0.28401-0.7445-0.28401-1.02852 0-0.28401 0.28402-0.28401 0.7445 0 1.02852l6.75849 6.75847-6.75849 6.7585005c-0.28401 0.284-0.28401 0.744499 0 1.0285 0.28402 0.283999 0.7445 0.283999 1.02852 0l6.75847-6.7585005 6.7585005 6.7584995c0.284 0.284 0.744499 0.284 1.0285 0 0.283999-0.284 0.283999-0.744499 0-1.0285L9.0284975 7.9999975 15.786997 1.2415275c0.284-0.28402 0.284-0.7445 0-1.02852-0.284-0.28401-0.744499-0.28401-1.0285 0l-6.7584995 6.75849z" fill="#00253e"/></svg>
