<svg xmlns="http://www.w3.org/2000/svg" width="18" height="18" viewBox="0 0 18 18" fill="none"><g fill="#00253e"><path d="M17.25 18H0.75C0.336 18 0 17.664 0 17.25 0 16.836 0.336 16.5 0.75 16.5h16.5c0.414 0 0.75 0.336 0.75 0.75 0 0.414-0.336 0.75-0.75 0.75z"/><path d="M17.25 9.75H0.75C0.336 9.75 0 9.414 0 9 0 8.586 0.336 8.25 0.75 8.25h16.5C17.664 8.25 18 8.586 18 9 18 9.414 17.664 9.75 17.25 9.75Z"/><path d="M17.25 1.5H0.75C0.336 1.5 0 1.165 0 0.75 0 0.335 0.336 0 0.75 0h16.5C17.664 0 18 0.336 18 0.75 18 1.164 17.664 1.5 17.25 1.5Z"/></g></svg>
